<svg xmlns="http://www.w3.org/2000/svg" xmlns:xlink="http://www.w3.org/1999/xlink" width="186.936" height="47.835" viewBox="0 0 186.936 47.835"><defs><clipPath id="clip-path"><rect id="Rectangle_197" data-name="Rectangle 197" width="186.936" height="47.835" transform="translate(0 0)" fill="none"></rect></clipPath></defs><g id="Group_156" data-name="Group 156" transform="translate(0 0)"><path id="Path_205" data-name="Path 205" d="M44.356,39.781l1.415,3.789H42.934Zm-1.169-1.933-3.818,9.806h2.039l.854-2.284h4.181l.854,2.284h2.087l-3.817-9.806Z" fill="#2273b9"></path><path id="Path_206" data-name="Path 206" d="M62.376,37.848l-2.823,7.823-2.808-7.823H54.664l3.685,9.806h2.374l3.683-9.806Z" fill="#2273b9"></path><rect id="Rectangle_193" data-name="Rectangle 193" width="1.954" height="9.805" transform="translate(71.543 37.848)" fill="#2273b9"></rect><path id="Path_207" data-name="Path 207" d="M85.621,39.781l1.414,3.789H84.2Zm-1.17-1.933-3.817,9.806h2.039l.854-2.284h4.18l.856,2.284h2.086l-3.817-9.806Z" fill="#2273b9"></path><path id="Path_208" data-name="Path 208" d="M96.027,37.848v1.828h3.039v7.978h1.955V39.676h3.039V37.848Z" fill="#2273b9"></path><rect id="Rectangle_194" data-name="Rectangle 194" width="1.954" height="9.805" transform="translate(111.274 37.848)" fill="#2273b9"></rect><g id="Group_155" data-name="Group 155"><g id="Group_154" data-name="Group 154" clip-path="url(#clip-path)"><path id="Path_209" data-name="Path 209" d="M131.166,42.75a5.151,5.151,0,1,1-5.155-5.084,4.945,4.945,0,0,1,5.155,5.084m-8.264,0a3.111,3.111,0,1,0,3.109-3.208A3.032,3.032,0,0,0,122.9,42.75" fill="#2273b9"></path><path id="Path_210" data-name="Path 210" d="M147.566,47.653h-1.835l-4.973-6.548-.006,6.548H138.8V37.848h1.828l4.98,6.548V37.848h1.961Z" fill="#2273b9"></path><rect id="Rectangle_195" data-name="Rectangle 195" width="29.245" height="1.759" transform="translate(157.691 38.404)" fill="#fff"></rect><path id="Path_211" data-name="Path 211" d="M147.536,6.168V25.84h23.528c4.117,0,9.579-1.877,9.579-8.661V14.187c0-6.676-4.443-8.019-9.408-8.019ZM141.3,32.079V0h31.988c8.591,0,13.647,6.446,13.647,14.588v2.925c0,8.509-5.35,14.568-13.821,14.568Z" fill="#fff" fill-rule="evenodd"></path><rect id="Rectangle_196" data-name="Rectangle 196" width="6.301" height="32.119" transform="translate(70.297 0.003)" fill="#fff"></rect><path id="Path_212" data-name="Path 212" d="M125.823,0h6.282V33.538l-.253-.183L92.138,10.966V32.125H85.846V.081l39.975,22.83Z" fill="#fff" fill-rule="evenodd"></path><path id="Path_213" data-name="Path 213" d="M6.3,9.18,48.156,22.226,0,.019V40.164H28.927V38.4H6.3Z" fill="#fff"></path><path id="Path_214" data-name="Path 214" d="M61,.017V28.068L54.688,25.2V8.063L37.695,12.157l-9.3-4.29Z" fill="#2273b9" fill-rule="evenodd"></path></g></g></g></svg>